<svg width="250" height="250" viewBox="0 0 250 250" fill="none" xmlns="http://www.w3.org/2000/svg">
<rect width="250" height="250" rx="8" fill="#F5F1EE"/>
<path d="M172.795 86.397C172.795 91.4732 167.76 96.5073 162.684 96.5073C157.608 96.5073 153.493 90.5541 153.493 85.4779C153.493 80.4018 157.608 77.2059 162.684 77.2059C167.76 77.2059 172.795 81.3209 172.795 86.397Z" fill="black"/>
<path d="M94.6693 77.2059C94.6693 82.2821 91.3876 84.5588 86.8191 84.5588C82.2506 84.5588 77.2061 81.3629 77.2061 76.2868C77.2061 71.2106 82.2506 64.3383 86.8191 64.3383C91.3876 64.3383 94.6693 72.1298 94.6693 77.2059Z" fill="black"/>
<path d="M122.242 76.2867C121.837 78.7541 120.745 85.181 120.199 87.5501C119.509 90.5407 119.109 92.6598 118.766 94.4007C118.419 96.1674 117.068 99.0062 115.906 101.87C115.184 103.649 114.135 105.376 113.043 107.604C112.154 109.417 111.066 110.362 110.318 110.69C107.655 111.86 103.166 110.366 100.577 110.136C96.493 109.773 92.4178 109.709 90.0027 110.752C88.221 111.522 89.7266 114.939 90.1673 116.846C90.6191 118.801 91.4935 120.837 92.517 122.842C93.6135 124.991 95.6488 126.22 97.1846 127.334C99.0351 128.676 102.385 129.755 105.259 131.265C107.86 132.631 110.982 133.946 112.184 135.655C113.146 137.022 112.97 138.799 112.972 145.562C112.904 147.123 112.769 147.771 112.7 148.333C112.63 148.894 112.63 149.348 112.017 149.816" stroke="black" stroke-width="5" stroke-linecap="round"/>
<path d="M160.92 150.697C155.405 145.183 109.449 167.242 107.611 169.999C105.773 172.756 138.673 202.36 154.486 190.22C166.889 180.697 166.435 156.212 160.92 150.697Z" stroke="black" stroke-width="5"/>
</svg>
