<svg width="32" height="32" viewBox="0 0 32 32" fill="none" xmlns="http://www.w3.org/2000/svg">
<rect width="32" height="32" rx="8" fill="#F5F1EE"/>
<path d="M22 10.4065C22 11.1955 21.2175 11.9779 20.4286 11.9779C19.6396 11.9779 19 11.0526 19 10.2637C19 9.47467 19.6396 8.97794 20.4286 8.97794C21.2175 8.97794 22 9.61753 22 10.4065Z" fill="black"/>
<path d="M11 8.88703C11 9.64014 10.4362 9.97794 9.65142 9.97794C8.86659 9.97794 8 9.50378 8 8.75066C8 7.99755 8.86659 6.97794 9.65142 6.97794C10.4362 6.97794 11 8.13391 11 8.88703Z" fill="black"/>
<path d="M15 8.97794C14.9388 9.34705 14.7738 10.3085 14.6913 10.6629C14.5871 11.1103 14.5266 11.4273 14.4748 11.6878C14.4223 11.9521 14.2182 12.3768 14.0427 12.8051C13.9336 13.0714 13.7751 13.3297 13.61 13.6629C13.4757 13.9343 13.3112 14.0756 13.1983 14.1247C12.7958 14.2997 12.1175 14.0762 11.7263 14.0418C11.1091 13.9875 10.4933 13.9779 10.1283 14.134C9.85912 14.2491 10.0866 14.7603 10.1532 15.0456C10.2215 15.3381 10.3536 15.6426 10.5083 15.9426C10.674 16.264 10.9815 16.4479 11.2136 16.6146C11.4932 16.8153 11.9994 16.9768 12.4338 17.2026C12.8268 17.4071 13.2986 17.6038 13.4803 17.8594C13.6256 18.0639 13.5989 18.3297 13.5992 19.3415C13.589 19.575 13.5686 19.6721 13.5581 19.756C13.5476 19.84 13.5476 19.9079 13.4549 19.9779" stroke="black" stroke-width="1.5" stroke-linecap="round"/>
<path d="M21.4175 20.1C20.5479 19.3361 13.3014 22.3918 13.0117 22.7738C12.7219 23.1558 17.9095 27.2567 20.403 25.5749C22.3588 24.2557 22.2871 20.864 21.4175 20.1Z" stroke="black" stroke-width="1.5"/>
</svg>
